<svg xmlns="http://www.w3.org/2000/svg" xmlns:xlink="http://www.w3.org/1999/xlink" width="500" zoomAndPan="magnify" viewBox="0 0 375 374.999991" height="500" preserveAspectRatio="xMidYMid meet" version="1.0"><defs><clipPath id="11d3367b00"><path d="M 25.574219 88.035156 L 349.5625 88.035156 L 349.5625 367.066406 L 25.574219 367.066406 Z M 25.574219 88.035156 " clip-rule="nonzero"/></clipPath><clipPath id="4cc766425d"><path d="M 76 154 L 300 154 L 300 301.660156 L 76 301.660156 Z M 76 154 " clip-rule="nonzero"/></clipPath></defs><g clip-path="url(#11d3367b00)"><path fill="#ed1c24" d="M 342.71875 250.414062 C 343.820312 246.988281 344.789062 243.496094 345.628906 239.984375 C 345.628906 239.964844 345.628906 239.964844 345.652344 239.941406 C 345.867188 239.039062 346.0625 238.132812 346.253906 237.230469 C 347.203125 232.984375 347.957031 228.652344 348.496094 224.238281 C 348.886719 221.242188 349.144531 218.207031 349.335938 215.148438 L 349.335938 215.125 C 349.511719 211.804688 349.597656 208.488281 349.554688 205.085938 C 349.035156 197.585938 348.820312 190.023438 347.914062 182.574219 C 347.613281 180.246094 347.246094 177.917969 346.773438 175.632812 C 346.382812 173.714844 345.953125 171.800781 345.457031 169.90625 C 344.703125 166.972656 343.863281 164.066406 342.894531 161.175781 C 342.070312 158.613281 341.167969 156.050781 340.21875 153.507812 C 330.558594 127.550781 310.554688 106.949219 287.183594 96.503906 C 268.558594 88.164062 247.796875 86.269531 228.4375 93.25 C 199.746094 103.570312 174.5625 104.324219 146.238281 93.011719 C 126.703125 85.214844 106.246094 87.5 87.769531 96.394531 C 83.5 98.441406 79.339844 100.855469 75.308594 103.570312 C 58.515625 114.945312 46.507812 128.777344 38.488281 144.457031 C 37.863281 145.707031 37.238281 146.980469 36.675781 148.25 C 36.226562 149.199219 35.792969 150.148438 35.40625 151.09375 C 31.480469 160.25 28.808594 169.96875 27.257812 180.160156 C 26.890625 182.574219 26.585938 185.003906 26.351562 187.460938 C 25.511719 195.710938 25.378906 204.246094 25.832031 212.96875 C 26.890625 233.328125 31.804688 252.050781 39.394531 269.523438 C 39.695312 270.210938 39.976562 270.882812 40.300781 271.546875 C 41.140625 273.445312 42 275.320312 42.929688 277.171875 C 53.925781 299.75 69.292969 320.28125 86.347656 339.710938 C 86.671875 340.101562 87.015625 340.46875 87.339844 340.832031 C 95.855469 350.25 105.253906 357.078125 115.363281 361.367188 C 116.789062 361.988281 118.234375 362.550781 119.675781 363.042969 C 136.082031 368.796875 154.257812 368.171875 173.488281 361.472656 C 184.417969 357.660156 193.902344 357.722656 204.53125 362.011719 C 227.144531 371.082031 248.855469 367.503906 269.269531 354.816406 C 283.238281 346.132812 293.761719 333.746094 303.484375 320.863281 C 306.15625 317.308594 308.785156 313.753906 311.332031 310.152344 C 312.582031 308.429688 313.789062 306.6875 314.972656 304.960938 C 326.679688 287.769531 336.578125 269.867188 342.71875 250.4375 L 342.71875 250.414062 " fill-opacity="1" fill-rule="nonzero"/></g><path fill="#80cc28" d="M 201.652344 76.09375 C 245.484375 87.21875 259.859375 27.617188 259.859375 27.617188 C 198.417969 27.617188 201.652344 76.09375 201.652344 76.09375 " fill-opacity="1" fill-rule="nonzero"/><path fill="#80cc28" d="M 115.058594 10.023438 C 115.058594 10.023438 113.621094 100.507812 197.339844 86.863281 C 197.339844 86.863281 207.757812 7.867188 115.058594 10.023438 " fill-opacity="1" fill-rule="nonzero"/><g clip-path="url(#4cc766425d)"><path fill="#ffffff" d="M 294.980469 154.652344 C 294.683594 154.652344 294.390625 154.652344 294.09375 154.652344 L 233.269531 164.101562 C 231.199219 164.394531 229.722656 165.871094 229.132812 167.941406 C 228.542969 170.007812 229.429688 172.074219 230.90625 173.253906 L 245.078125 184.769531 L 211.121094 218.726562 L 185.136719 192.742188 C 181.890625 189.496094 177.460938 187.722656 173.03125 187.722656 C 168.601562 187.722656 164.171875 189.496094 160.925781 192.742188 L 81.792969 271.875 C 75 278.667969 75 289.59375 81.792969 296.089844 C 85.039062 299.335938 89.46875 301.109375 93.898438 301.109375 C 98.328125 301.109375 102.757812 299.335938 106.003906 296.089844 L 173.03125 229.0625 L 199.3125 255.339844 C 206.101562 262.132812 217.027344 262.132812 223.523438 255.339844 L 230.90625 247.960938 L 230.90625 248.550781 L 270.472656 208.984375 L 284.941406 222.566406 C 285.828125 223.453125 287.007812 224.042969 288.484375 224.042969 C 289.074219 224.042969 289.664062 224.042969 290.257812 223.746094 C 292.027344 223.15625 293.207031 221.382812 293.503906 219.613281 L 299.703125 160.851562 C 299.703125 160.558594 299.703125 160.261719 299.703125 159.96875 C 300 156.71875 297.933594 154.652344 294.980469 154.652344 Z M 294.980469 154.652344 " fill-opacity="1" fill-rule="nonzero"/></g></svg>